HIERARCHY
ROOT Hips
{
	OFFSET -0.001795 -0.223333 0.028219
	CHANNELS 6 Xposition Yposition Zposition Zrotation Yrotation Xrotation 
	JOINT LeftUpLeg
	{
		OFFSET 0.069520 -0.091406 -0.006815
		CHANNELS 3 Zrotation Yrotation Xrotation
		JOINT LeftLeg
		{
			OFFSET 0.034277 -0.375199 -0.004496
			CHANNELS 3 Zrotation Yrotation Xrotation
			JOINT LeftFoot
			{
				OFFSET -0.013596 -0.397961 -0.043693
				CHANNELS 3 Zrotation Yrotation Xrotation
				JOINT LeftToe
				{
					OFFSET 0.026358 -0.055791 0.119288
					CHANNELS 3 Zrotation Yrotation Xrotation
					End Site
					{
						OFFSET 0.000000 0.000000 0.000000
					}
				}
			}
		}
	}
	JOINT RightUpLeg
	{
		OFFSET -0.067670 -0.090522 -0.004320
		CHANNELS 3 Zrotation Yrotation Xrotation
		JOINT RightLeg
		{
			OFFSET -0.038290 -0.382569 -0.008850
			CHANNELS 3 Zrotation Yrotation Xrotation
			JOINT RightFoot
			{
				OFFSET 0.015774 -0.398415 -0.042312
				CHANNELS 3 Zrotation Yrotation Xrotation
				JOINT RightToe
				{
					OFFSET -0.025372 -0.048144 0.123348
					CHANNELS 3 Zrotation Yrotation Xrotation
					End Site
					{
						OFFSET 0.000000 0.000000 0.000000
					}
				}
			}
		}
	}
	JOINT Spine
	{
		OFFSET -0.002533 0.108963 -0.026696
		CHANNELS 3 Zrotation Yrotation Xrotation
		JOINT Spine1
		{
			OFFSET 0.005487 0.135180 0.001092
			CHANNELS 3 Zrotation Yrotation Xrotation
			JOINT Spine2
			{
				OFFSET 0.001457 0.052922 0.025425
				CHANNELS 3 Zrotation Yrotation Xrotation
				JOINT Neck
				{
					OFFSET -0.002778 0.213870 -0.042857
					CHANNELS 3 Zrotation Yrotation Xrotation
					JOINT Head
					{
						OFFSET 0.005152 0.064970 0.051349
						CHANNELS 3 Zrotation Yrotation Xrotation
						End Site
						{
							OFFSET 0.000000 0.000000 0.000000
						}
					}
				}
				JOINT LeftShoulder
				{
					OFFSET 0.078845 0.121749 -0.034090
					CHANNELS 3 Zrotation Yrotation Xrotation
					JOINT LeftArm
					{
						OFFSET 0.090977 0.030469 -0.008868
						CHANNELS 3 Zrotation Yrotation Xrotation
						JOINT LeftForeArm
						{
							OFFSET 0.259612 -0.012772 -0.027456
							CHANNELS 3 Zrotation Yrotation Xrotation
							JOINT LeftHand
							{
								OFFSET 0.249234 0.008986 -0.001171
								CHANNELS 3 Zrotation Yrotation Xrotation
								End Site
								{
									OFFSET 0.000000 0.000000 0.000000
								}
							}
						}
					}
				}
				JOINT RightShoulder
				{
					OFFSET -0.081759 0.118833 -0.038615
					CHANNELS 3 Zrotation Yrotation Xrotation
					JOINT RightArm
					{
						OFFSET -0.096012 0.032551 -0.009143
						CHANNELS 3 Zrotation Yrotation Xrotation
						JOINT RightForeArm
						{
							OFFSET -0.253742 -0.013329 -0.021401
							CHANNELS 3 Zrotation Yrotation Xrotation
							JOINT RightHand
							{
								OFFSET -0.255298 0.007772 -0.005559
								CHANNELS 3 Zrotation Yrotation Xrotation
								End Site
								{
									OFFSET 0.000000 0.000000 0.000000
								}
							}
						}
					}
				}
			}
		}
	}
}
MOTION
Frames: 12
Frame Time: 0.050000
0.000000 0.909436 0.000000 -0.833474 -2.894876 1.932536 1.871554 -1.363166 -18.852551 -3.102087 0.394868 23.584306 3.697643 5.667783 -7.273715 0.000000 0.000000 0.000000 -1.978070 -0.343347 5.177919 -3.387074 2.056154 21.722896 -1.705334 0.420315 -8.465998 0.000000 0.000000 0.000000 -0.772597 -0.267801 8.703936 -1.382884 0.664380 -0.910699 -0.763988 5.920704 10.444646 5.521592 -1.460455 -18.575177 0.000000 0.000000 0.000000 -22.510130 -3.025607 -1.683728 -47.468600 -1.033543 -5.314563 -8.375493 -31.929003 3.364980 0.000000 0.000000 0.000000 16.926958 -0.607127 -0.708701 47.322178 -1.284735 -5.727103 4.426490 36.610591 3.241863 0.000000 0.000000 0.000000 
0.014346 0.912421 0.027102 -0.823717 -1.008691 1.475828 -0.040793 -1.452002 -15.992475 -1.926743 -0.136042 23.708071 3.616721 5.137951 -7.610890 0.000000 0.000000 0.000000 -1.895657 -0.193394 3.004134 -4.370389 3.056392 30.352005 -0.432906 1.608839 -4.758272 0.000000 0.000000 0.000000 -1.403833 -0.240681 9.313695 -1.101828 0.539338 -1.003840 -0.607946 3.849655 11.123750 5.440605 -1.591779 -18.447267 0.000000 0.000000 0.000000 -21.542629 -2.146221 -1.670345 -48.186184 -2.784119 -4.940991 -6.113470 -31.757704 2.824189 0.000000 0.000000 0.000000 16.719313 -1.174180 -1.213990 48.754907 -3.468823 -6.745989 4.842874 38.050606 3.465827 0.000000 0.000000 0.000000 
0.026717 0.915704 0.053044 -0.421328 -1.063476 0.549325 -1.852413 -1.416569 -13.432262 -1.355816 -0.321275 23.722288 3.545278 4.441428 -8.915970 0.000000 0.000000 0.000000 -3.378753 0.399054 -4.400246 -1.199755 2.920979 46.069203 -1.077803 -2.563914 -0.385862 0.000000 0.000000 0.000000 -2.308783 -0.170371 9.861715 -1.102257 0.541402 -1.051164 -0.533123 3.315094 12.381262 4.935508 -1.667555 -16.243118 0.000000 0.000000 0.000000 -21.009061 -4.262760 -0.204734 -47.311816 -4.637725 -4.323866 -7.365668 -32.069189 3.279909 0.000000 0.000000 0.000000 16.746335 0.298985 -0.555232 48.316631 -4.760994 -7.236034 3.647752 38.013461 2.980235 0.000000 0.000000 0.000000 
0.035994 0.917378 0.077932 -0.678433 -0.580258 0.098148 -2.347704 -1.048181 -9.608909 -0.623694 -0.538922 21.603388 3.011497 2.353116 -10.247234 0.000000 0.000000 0.000000 -2.972813 0.852467 -10.494800 0.326520 2.425101 54.494774 -2.153615 -6.191944 1.982844 0.000000 0.000000 0.000000 -2.002709 -0.226005 10.645009 -1.206379 0.585765 -0.512862 -0.169732 1.026972 12.362066 3.920349 -1.258890 -16.433975 0.000000 0.000000 0.000000 -21.292488 -5.135677 0.902042 -45.918262 -4.324318 -4.497640 -7.645351 -34.278704 3.794354 0.000000 0.000000 0.000000 16.026662 0.505168 -0.863732 48.223793 -6.295321 -7.712090 3.832913 38.211061 2.820359 0.000000 0.000000 0.000000 
0.042741 0.918431 0.102795 -1.256441 0.625338 -0.797965 -2.379716 -0.625271 -5.809060 -0.063164 -0.700490 19.431193 2.906261 1.438417 -11.007902 0.000000 0.000000 0.000000 -2.233724 1.283202 -15.447313 2.659508 0.546988 57.563024 -4.356795 -11.119141 0.917667 0.000000 0.000000 0.000000 -1.472067 -0.335357 11.861818 -0.223095 0.098199 0.346276 -1.156603 -1.212721 12.254952 2.798655 -0.793109 -15.771711 0.000000 0.000000 0.000000 -21.629938 -5.655088 1.624538 -43.739345 -6.294743 -3.754551 -5.027788 -34.637959 3.132829 0.000000 0.000000 0.000000 16.094793 0.959016 -0.959805 48.687182 -6.882604 -7.965103 3.032748 39.589289 2.492979 0.000000 0.000000 0.000000 
0.047597 0.920244 0.128436 -1.957103 1.092369 -1.624699 -1.567899 -0.227850 -2.327304 -0.028014 -0.630130 16.862396 3.124982 1.673161 -11.473202 0.000000 0.000000 0.000000 -1.590084 1.751774 -20.243621 3.936217 -0.507096 54.867436 -5.127756 -12.601253 -0.903985 0.000000 0.000000 0.000000 -0.958611 -0.459992 13.451761 0.245384 -0.129858 0.347048 -1.157755 -2.816861 12.092882 2.422012 -0.794219 -14.871047 0.000000 0.000000 0.000000 -21.763451 -6.993609 2.805646 -43.164022 -7.694662 -3.375826 -2.947867 -36.278001 2.742609 0.000000 0.000000 0.000000 16.539899 1.059927 -1.254318 48.212330 -6.666019 -7.741106 3.385303 41.394358 2.568659 0.000000 0.000000 0.000000 
0.051111 0.921770 0.155048 -2.665316 1.163169 -1.824480 -0.807951 0.047886 0.420125 -0.108962 -0.556737 15.446183 3.207464 1.976793 -11.272129 0.000000 0.000000 0.000000 -0.437888 2.305665 -24.156043 3.874764 -0.464574 47.571120 -5.122732 -12.536051 -1.125565 0.000000 0.000000 0.000000 -0.542382 -0.534881 13.964163 0.875003 -0.461344 0.926194 -1.293415 -3.948702 11.710487 1.532324 -0.397637 -13.928819 0.000000 0.000000 0.000000 -21.824347 -6.753828 2.978189 -42.782735 -9.799491 -2.721278 -0.779881 -37.297683 2.208040 0.000000 0.000000 0.000000 16.226482 1.796472 -1.092519 49.889064 -6.767491 -8.027284 5.245976 44.452022 3.357928 0.000000 0.000000 0.000000 
0.053464 0.922551 0.183163 -2.768798 0.975098 -1.890479 -0.527899 0.314832 3.296867 -0.453808 -0.409357 13.884939 3.766004 3.515811 -11.342923 0.000000 0.000000 0.000000 0.154565 2.752118 -27.336557 3.656111 -0.284597 39.107064 -4.667037 -11.576494 -0.241381 0.000000 0.000000 0.000000 -0.701876 -0.542952 14.732421 1.507441 -0.756130 0.555099 -1.324248 -4.083849 12.342150 1.571022 -0.520422 -13.105649 0.000000 0.000000 0.000000 -21.383976 -7.921582 3.742271 -42.566906 -11.838007 -2.116283 2.083911 -40.369956 1.448588 0.000000 0.000000 0.000000 16.664244 2.023853 -1.059477 50.516643 -6.398419 -8.046410 8.184059 48.547789 4.988460 0.000000 0.000000 0.000000 
0.055208 0.920699 0.213911 -2.910497 1.486086 -1.537156 -0.353935 0.551308 5.984510 -0.268227 -0.369635 11.415280 3.496941 2.786413 -11.115622 0.000000 0.000000 0.000000 0.563294 2.920908 -28.389140 3.305690 -0.206302 28.625108 -4.774191 -12.078179 1.031666 0.000000 0.000000 0.000000 -0.501969 -0.579884 14.753639 2.134014 -1.068049 0.634034 -1.528719 -5.093190 12.191939 1.425594 -0.494416 -13.206142 0.000000 0.000000 0.000000 -21.523902 -8.400634 4.242930 -42.021360 -13.930184 -1.461693 4.136257 -43.619311 0.889538 0.000000 0.000000 0.000000 16.572598 2.552939 -0.953508 51.560700 -6.581766 -8.276111 12.910750 53.195898 7.709688 0.000000 0.000000 0.000000 
0.056154 0.916597 0.247945 -2.903241 1.826932 -1.272923 -0.508401 0.861779 9.322828 0.179156 -0.375467 9.197469 3.500842 2.560613 -11.435664 0.000000 0.000000 0.000000 0.523052 2.934940 -28.864292 3.414074 -0.280707 19.305394 -4.492644 -11.600248 2.052013 0.000000 0.000000 0.000000 -0.281053 -0.620159 14.839933 1.990821 -0.989177 0.484666 -1.332649 -5.848863 12.748543 0.895717 -0.271563 -12.240837 0.000000 0.000000 0.000000 -20.820357 -9.383641 4.974362 -42.772001 -15.660922 -0.948858 7.048146 -46.835741 -0.103893 0.000000 0.000000 0.000000 16.363336 3.039491 -0.808976 52.627096 -6.702863 -8.568146 19.056871 56.846067 11.526330 0.000000 0.000000 0.000000 
0.056059 0.909163 0.285660 -2.471340 2.633934 -0.232643 -0.725745 1.071513 11.532106 1.125134 -0.429497 6.617664 3.157180 0.863596 -12.457369 0.000000 0.000000 0.000000 0.140786 2.896990 -30.081970 3.294099 -0.287758 13.698164 -4.865208 -12.473870 2.211450 0.000000 0.000000 0.000000 0.261789 -0.652859 13.784182 2.731561 -1.471273 2.278853 -2.025666 -6.438495 11.119346 0.943969 -0.280310 -12.305154 0.000000 0.000000 0.000000 -19.910477 -10.226308 5.353446 -44.309656 -16.507616 -0.425966 8.466016 -49.460716 -0.715775 0.000000 0.000000 0.000000 17.296780 3.295927 -0.865996 52.445299 -7.356397 -8.612432 21.962873 59.757005 13.805493 0.000000 0.000000 0.000000 
0.054477 0.899668 0.326866 -2.222413 3.035913 0.405337 -0.605969 1.275303 14.124959 1.811932 -0.489661 5.659452 3.021213 0.337349 -12.555864 0.000000 0.000000 0.000000 0.817988 3.193190 -31.785557 2.566893 -0.113161 15.466066 -5.021743 -12.848445 2.378284 0.000000 0.000000 0.000000 1.274721 -0.800926 13.931941 3.325834 -1.749629 1.959018 -3.638871 -6.196337 11.552304 1.555393 -0.673835 -11.643279 0.000000 0.000000 0.000000 -19.159642 -11.028198 5.553969 -44.966420 -17.880193 0.172970 9.110323 -50.352225 -1.115605 0.000000 0.000000 0.000000 18.196949 3.498483 -0.693133 53.051946 -6.578466 -8.415080 19.102254 60.889619 12.675210 0.000000 0.000000 0.000000 
